<?xml version="1.0" encoding="utf-8"?>
<!-- Uploaded to: SVG Repo, www.svgrepo.com, Generator: SVG Repo Mixer Tools -->
<svg xmlns="http://www.w3.org/2000/svg" xmlns:xlink="http://www.w3.org/1999/xlink" version="1.1" id="distributemail"  viewBox="0 0 210.6279 210.0442" enable-background="new 0 0 210.6279 210.0442" xml:space="preserve" width="512" height="512">
<g>
	<path fill="#D0E8FF" d="M80.1001,54.3015L42.4958,20.3357c-1.5867,0.5391-2.7478,1.9902-2.7478,3.7461v73.9346L80.1001,54.3015z"/>
	<path fill="#D0E8FF" d="M166.4602,104.0779l-40.9993-44.416l-17.0332,15.3848c-0.7617,0.6875-1.7188,1.0312-2.6797,1.0312   s-1.918-0.3438-2.6797-1.0312L86.0352,59.6619l-40.9993,44.416H166.4602z"/>
	<path fill="#D0E8FF" d="M169.0002,20.3357L131.396,54.3015l40.3521,43.7148V24.0818   C171.748,22.3259,170.5869,20.8748,169.0002,20.3357z"/>
	<polygon fill="#D0E8FF" points="157.3535,20.0779 54.1426,20.0779 105.748,66.6873  "/>
	<path fill="#1C71DA" d="M43.7793,112.0779h123.9375c6.6328,0,12.0312-5.3848,12.0312-12.0039V24.0818   c0-6.5879-5.3501-11.9434-11.9395-11.9941c-0.021-0.001-0.0396-0.0098-0.0605-0.0098h-0.0312H43.7793H43.748   c-0.021,0-0.0396,0.0088-0.0605,0.0098c-6.5894,0.0508-11.9395,5.4062-11.9395,11.9941v75.9922   C31.748,106.6931,37.1465,112.0779,43.7793,112.0779z M103.0684,75.0466c0.7617,0.6875,1.7188,1.0312,2.6797,1.0312   s1.918-0.3438,2.6797-1.0312l17.0332-15.3848l40.9993,44.416H45.0359l40.9993-44.416L103.0684,75.0466z M171.748,98.0164   L131.396,54.3015l37.6042-33.9658c1.5867,0.5391,2.7478,1.9902,2.7478,3.7461V98.0164z M157.3535,20.0779L105.748,66.6873   L54.1426,20.0779H157.3535z M42.4958,20.3357l37.6042,33.9658L39.748,98.0164V24.0818   C39.748,22.3259,40.9092,20.8748,42.4958,20.3357z"/>
	<path fill="#1C71DA" d="M185.748,140.0779h-77.313l10.1411-10.1426c1.5625-1.5625,1.5625-4.0938,0-5.6562s-4.0938-1.5625-5.6562,0   l-16.9688,16.9707c-1.5625,1.5625-1.5625,4.0938,0,5.6562l16.9688,16.9707c0.7812,0.7812,1.8047,1.1719,2.8281,1.1719   s2.0469-0.3906,2.8281-1.1719c1.5625-1.5625,1.5625-4.0938,0-5.6562l-10.1411-10.1426h77.313V140.0779z"/>
	<path fill="#1C71DA" d="M98.5762,164.2791c-1.5625-1.5625-4.0938-1.5625-5.6562,0s-1.5625,4.0938,0,5.6562l10.1411,10.1426H25.748   v8h77.313l-10.1411,10.1426c-1.5625,1.5625-1.5625,4.0938,0,5.6562c0.7812,0.7812,1.8047,1.1719,2.8281,1.1719   s2.0469-0.3906,2.8281-1.1719l16.9688-16.9707c1.5625-1.5625,1.5625-4.0938,0-5.6562L98.5762,164.2791z"/>
</g>
<path fill="#FF5D5D" d="M178.1426,210.0442c-1.0234,0-2.0479-0.3906-2.8281-1.1714l-14.1426-14.1426  c-1.5625-1.5625-1.5625-4.0947,0-5.6572c1.5605-1.5615,4.0957-1.5615,5.6562,0l14.1426,14.1426  c1.5625,1.5625,1.5625,4.0947,0,5.6572C180.1904,209.6536,179.166,210.0442,178.1426,210.0442z"/>
<path fill="#FF5D5D" d="M164,210.0417c-1.0234,0-2.0469-0.3906-2.8281-1.1714c-1.5625-1.5625-1.5625-4.0952,0-5.6572  l14.1426-14.1421c1.5605-1.5615,4.0938-1.5615,5.6562,0c1.5625,1.5625,1.5625,4.0952,0,5.6572l-14.1426,14.1421  C166.0479,209.6511,165.0234,210.0417,164,210.0417z"/>
<path fill="#00D40B" d="M14,163.9021c-7.7197,0-14-6.2803-14-14s6.2803-14,14-14s14,6.2803,14,14S21.7197,163.9021,14,163.9021z   M14,143.9021c-3.3086,0-6,2.6914-6,6s2.6914,6,6,6s6-2.6914,6-6S17.3086,143.9021,14,143.9021z"/>
<path fill="#FFC504" d="M195.3145,30.6267c-1.0234,0-2.0469-0.3906-2.8281-1.1714l-11.3145-11.3135  c-0.75-0.75-1.1719-1.7676-1.1719-2.8286s0.4219-2.0786,1.1719-2.8286l11.3145-11.3135c1.5625-1.5615,4.0938-1.5615,5.6562,0  l11.3135,11.3135c1.5625,1.5625,1.5625,4.0947,0,5.6572l-11.3135,11.3135C197.3623,30.2361,196.3379,30.6267,195.3145,30.6267z   M189.6572,15.3132l5.6572,5.6567l5.6562-5.6567l-5.6562-5.6567L189.6572,15.3132z"/>
</svg>